<?xml version="1.0" standalone="no"?><!DOCTYPE svg PUBLIC "-//W3C//DTD SVG 1.1//EN" "http://www.w3.org/Graphics/SVG/1.1/DTD/svg11.dtd"><svg t="1602666678655" class="icon" viewBox="0 0 1024 1024" version="1.1" xmlns="http://www.w3.org/2000/svg" p-id="4044" xmlns:xlink="http://www.w3.org/1999/xlink" width="200" height="200"><defs><style type="text/css"></style></defs><path d="M132.04 621l-58.96 60v139H144l56-56h58l63 63h365l60-60h42l66 66h64.5V700.41l-74.46-74.45-712-4.96z" fill="#1296db" p-id="4045"></path><path d="M743.75 730.34a34 34 0 0 0-27.67 14.24 94.15 94.15 0 0 1 9.77 8.95 21 21 0 0 1 36.22 0.7 94.11 94.11 0 0 1 9.75-9.11 34 34 0 0 0-28.07-14.78zM487.6 801.64a16 16 0 0 0-14.19 8.65 93.24 93.24 0 0 1 12.45 19.2H488a93.25 93.25 0 0 1 13.23-20.11 16 16 0 0 0-13.63-7.74zM743.75 676a88.87 88.87 0 0 0-78.87 48.46 92.53 92.53 0 0 1 13.82 2.11 75.22 75.22 0 0 1 130.22 0.22 92.61 92.61 0 0 1 13.74-2.24A88.87 88.87 0 0 0 743.75 676z" fill="#1296db" p-id="4046"></path><path d="M743.75 712.22a52 52 0 0 0-42.85 22.52 94.38 94.38 0 0 1 11.18 6.84 39 39 0 0 1 63.71 0.5 94.39 94.39 0 0 1 11.1-6.93 52 52 0 0 0-43.14-22.93zM487.6 729.19A88.87 88.87 0 0 0 409.07 777a92.6 92.6 0 0 1 13.83 2.16 75.21 75.21 0 0 1 129.26-0.28 92.57 92.57 0 0 1 13.94-2 88.87 88.87 0 0 0-78.5-47.69zM572.12 748.45a16 16 0 0 0-13.89 8.11 93.29 93.29 0 0 1 13.36 20.17h2.37a93.23 93.23 0 0 1 12.55-19.23 16 16 0 0 0-14.39-9.05zM830.58 695.92a16 16 0 0 0-14.55 9.4 93.25 93.25 0 0 1 12 18.92h3a93.24 93.24 0 0 1 13.29-20.38 16 16 0 0 0-13.74-7.94zM658 783.53a34 34 0 0 0-27.4 13.84 94.13 94.13 0 0 1 9.72 9 21 21 0 0 1 35.34 0 94.13 94.13 0 0 1 9.72-9A34 34 0 0 0 658 783.53z" fill="#1296db" p-id="4047"></path><path d="M743.75 694.11a70.53 70.53 0 0 0-60 33.75 93.62 93.62 0 0 1 12.6 4.65 57.09 57.09 0 0 1 95.07 0.37 93.75 93.75 0 0 1 12.51-4.76 70.53 70.53 0 0 0-60.18-34.01zM131.55 624.5L112.36 644a75.08 75.08 0 0 1 97.28 29.5 92.63 92.63 0 0 1 13.8-2.2 89 89 0 0 0-67.59-47.16L135.1 624c-1.19 0.15-2.37 0.31-3.55 0.5zM487.6 765.42a52 52 0 0 0-42.53 22.05 94.45 94.45 0 0 1 11.15 6.89 39 39 0 0 1 62.3-0.61 94.44 94.44 0 0 1 11.27-6.75 52 52 0 0 0-42.19-21.58z" fill="#1296db" p-id="4048"></path><path d="M487.6 783.53a34 34 0 0 0-27.4 13.84 94.19 94.19 0 0 1 9.72 9 20.95 20.95 0 0 1 34.82-0.81 94.22 94.22 0 0 1 9.76-8.82 34 34 0 0 0-26.9-13.21z" fill="#1296db" p-id="4049"></path><path d="M487.6 747.3a70.52 70.52 0 0 0-59.66 33.2 93.7 93.7 0 0 1 12.58 4.71 57.08 57.08 0 0 1 93.85-0.44 93.58 93.58 0 0 1 12.7-4.58 70.51 70.51 0 0 0-59.47-32.89zM401.76 748.45a16 16 0 0 0-13.89 8.11 93.28 93.28 0 0 1 13.36 20.17h2.37a93.26 93.26 0 0 1 12.55-19.23 16 16 0 0 0-14.39-9.05zM800.89 628.65A89.07 89.07 0 0 0 752 671.38a92.6 92.6 0 0 1 13.75 2.29 75.53 75.53 0 0 1 64.83-37.09 74.78 74.78 0 0 1 25.62 4.54L844 629zM658 747.3a70.52 70.52 0 0 0-59.66 33.2 93.69 93.69 0 0 1 12.58 4.71 57.09 57.09 0 0 1 94.15 0 93.61 93.61 0 0 1 12.59-4.7A70.52 70.52 0 0 0 658 747.3z" fill="#1296db" p-id="4050"></path><path d="M658 729.19A88.87 88.87 0 0 0 579.42 777a92.6 92.6 0 0 1 13.83 2.16 75.21 75.21 0 0 1 129.42 0 92.52 92.52 0 0 1 13.82-2.16A88.87 88.87 0 0 0 658 729.19z" fill="#1296db" p-id="4051"></path><path d="M658 765.42a52 52 0 0 0-42.53 22.05 94.32 94.32 0 0 1 11.15 6.89 39 39 0 0 1 62.76 0 94.35 94.35 0 0 1 11.15-6.88A52 52 0 0 0 658 765.42zM658 801.64a16 16 0 0 0-14.19 8.65 93.24 93.24 0 0 1 12.44 19.17h0.43c1 0 2 0 3 0.06a93.23 93.23 0 0 1 12.49-19.26 16 16 0 0 0-14.17-8.62zM544.43 637.86a94.24 94.24 0 0 1 9.89 8.75 21 21 0 0 1 36.09 0.85 94.16 94.16 0 0 1 9.86-8.94 34.29 34.29 0 0 0-13-11.35l-29.83-0.17a34.26 34.26 0 0 0-13.01 10.86zM776.91 635.54a94.33 94.33 0 0 1 11.21-6.77l-0.15-0.21-17.35-0.12a39.62 39.62 0 0 1 6.29 7.1zM836.53 724.39a92.54 92.54 0 0 1 13.92 2 75.65 75.65 0 0 1 54.5-36.5l-11.16-11.19a89.05 89.05 0 0 0-57.26 45.69zM183 626.69c0.51-0.79 1.05-1.57 1.6-2.33l-7.41-0.05q2.99 1.1 5.81 2.38zM830.58 641.58A70.52 70.52 0 0 0 770.76 675a93.69 93.69 0 0 1 12.5 4.81 57.09 57.09 0 0 1 94.16-0.72 93.64 93.64 0 0 1 12.32-4.5l-23-23a70.06 70.06 0 0 0-36.16-10.01zM579.42 671.29a92.6 92.6 0 0 1 13.83 2.16 75.21 75.21 0 0 1 129.42 0 92.52 92.52 0 0 1 13.83-2.16 89.07 89.07 0 0 0-51.19-43.44l-53.51-0.37a89.07 89.07 0 0 0-52.38 43.81zM701.12 629.13a94.32 94.32 0 0 1 11.15 6.87 39.55 39.55 0 0 1 7-7.91l-17.32-0.09c-0.28 0.35-0.56 0.73-0.83 1.13zM419.69 753.55a94.17 94.17 0 0 1 9.77-9 34 34 0 0 0-54.92-0.66 94.21 94.21 0 0 1 9.83 8.8 20.94 20.94 0 0 1 35.32 0.81zM901.37 756.74a93.27 93.27 0 0 1 13.2 20h0.8c1 0 2.09 0 3.13 0.06v-28a15.89 15.89 0 0 0-17.13 8zM604.28 635.54a94.33 94.33 0 0 1 11.21-6.77c-0.32-0.48-0.67-0.94-1-1.41l-17.93-0.12a39.55 39.55 0 0 1 7.72 8.3zM73.08 823h6.57a51.68 51.68 0 0 0-6.57-2.61z" fill="#1296db" p-id="4052"></path><path d="M855.51 727.62a93.63 93.63 0 0 1 12.67 4.55 57 57 0 0 1 47.19-24.95c1 0 2.09 0 3.13 0.09v-3.91l-9-9a70.59 70.59 0 0 0-53.99 33.22zM888 744.07a94.19 94.19 0 0 1 9.82 8.83 20.92 20.92 0 0 1 20.64-9.21V730.5c-1-0.1-2.08-0.16-3.13-0.16A34 34 0 0 0 888 744.07z" fill="#1296db" p-id="4053"></path><path d="M872.78 734.35A94.37 94.37 0 0 1 884 741.1a39 39 0 0 1 31.34-15.76c1.05 0 2.09 0.06 3.13 0.14v-13.16c-1-0.06-2.08-0.1-3.13-0.1a52 52 0 0 0-42.56 22.13zM716.26 639a94.15 94.15 0 0 1 9.85 9.09 21 21 0 0 1 36.93-0.63 94.16 94.16 0 0 1 9.86-8.94 34.36 34.36 0 0 0-10.8-10.14l-34.29-0.24A34.32 34.32 0 0 0 716.26 639zM263.34 635.71a94.31 94.31 0 0 1 11.18-6.8c-0.91-1.37-1.9-2.67-2.92-3.94l-19.45-0.14a39.4 39.4 0 0 1 11.19 10.88zM279.07 626.7c1.29-0.58 2.61-1.13 3.93-1.65h-5.07q0.59 0.79 1.14 1.65zM238.7 671.32a92.6 92.6 0 0 1 13.8 2.21 75.21 75.21 0 0 1 129.3-0.35 92.57 92.57 0 0 1 13.94-2 89.06 89.06 0 0 0-60.12-45.79l-35.49-0.25a89 89 0 0 0-61.43 46.18zM354.12 626.13c0.13-0.2 0.28-0.39 0.42-0.59h-1.87c0.48 0.19 0.97 0.38 1.45 0.59zM202.79 638.69a94.21 94.21 0 0 1 9.85 9 21 21 0 0 1 36.83 0 94.22 94.22 0 0 1 9.85-9 34.15 34.15 0 0 0-19.58-13.95l-17-0.12a34.15 34.15 0 0 0-19.95 14.07zM187.6 628.9a94.39 94.39 0 0 1 11.19 6.8 39.39 39.39 0 0 1 11.62-11.15l-19.41-0.14a53.38 53.38 0 0 0-3.4 4.49zM433.93 635.54a94.4 94.4 0 0 1 11.21-6.77q-0.9-1.34-1.86-2.6l-18.66-0.17a39.45 39.45 0 0 1 9.31 9.54zM409.07 671.29a92.6 92.6 0 0 1 13.83 2.16 75.21 75.21 0 0 1 129.26-0.28 92.57 92.57 0 0 1 13.94-2 89.07 89.07 0 0 0-55.18-44.57l-45.44-0.32a89.06 89.06 0 0 0-56.41 45.01zM449.7 626.58l0.86-0.36h-1.11zM529.09 628.26a94.39 94.39 0 0 1 11.3 6.65 39.48 39.48 0 0 1 7.72-8l-17.92-0.12c-0.37 0.47-0.74 0.96-1.1 1.47zM374.08 637.86a94.19 94.19 0 0 1 9.89 8.75 21 21 0 0 1 36.09 0.85 94.21 94.21 0 0 1 9.86-8.94A34.23 34.23 0 0 0 414.18 626l-24.39-0.17a34.21 34.21 0 0 0-15.71 12.03zM358.74 628.26a94.4 94.4 0 0 1 11.3 6.65 39.41 39.41 0 0 1 9.31-9.2l-18.64-0.13q-1.02 1.31-1.97 2.68zM401.76 707.22a57 57 0 0 1 47.42 25.31 93.65 93.65 0 0 1 12.59-4.66 70.22 70.22 0 0 0-119.84-0.31 93.5 93.5 0 0 1 12.69 4.52 57 57 0 0 1 47.14-24.86zM73.08 755.25V758c0.32-0.39 0.64-0.78 1-1.17a16.12 16.12 0 0 0-1-1.58zM77.56 753a94.22 94.22 0 0 1 9.81-8.84A34.18 34.18 0 0 0 73.08 733v15a21.13 21.13 0 0 1 4.48 5zM91.39 741.13a94.34 94.34 0 0 1 11.24-6.75 52.16 52.16 0 0 0-29.55-20.49v13.69a39.13 39.13 0 0 1 18.31 13.55zM245.58 757.78a16 16 0 0 0-29 0 93.22 93.22 0 0 1 6.82 9.23h15.42a93.21 93.21 0 0 1 6.76-9.23zM107.23 732.2a93.57 93.57 0 0 1 12.67-4.56 70.67 70.67 0 0 0-46.82-32.29v13.4a57.11 57.11 0 0 1 34.15 23.45zM330.91 809.36a16 16 0 0 0-28 1.2q2.35 2.82 4.48 5.85l11.21 11.21a93.27 93.27 0 0 1 12.31-18.26zM317.25 760.42A57 57 0 0 1 364 784.77a93.58 93.58 0 0 1 12.7-4.58 70.15 70.15 0 0 0-113.26-7.74l9.31 9.31a56.94 56.94 0 0 1 44.5-21.34z" fill="#1296db" p-id="4054"></path><path d="M285.74 794.52a39 39 0 0 1 62.42-0.78 94.37 94.37 0 0 1 11.27-6.74 52 52 0 0 0-83.1-1.63L285 794zM830.58 742.3a75.53 75.53 0 0 1 64.58 36.7 92.58 92.58 0 0 1 13.92-2 88.36 88.36 0 0 0-153-6.94h16.21a75.44 75.44 0 0 1 58.29-27.76zM750.25 770a93.22 93.22 0 0 1 8.59-12.13l-0.45 0.2a16 16 0 0 0-29-0.58A93.28 93.28 0 0 1 741 775l5-5zM830.58 801.64a15.9 15.9 0 0 0-8.48 2.46l15 15a94.1 94.1 0 0 1 7.21-9.6 16 16 0 0 0-13.73-7.86zM125 726.36a92.55 92.55 0 0 1 13.91-2 89 89 0 0 0-60-46.33L73.08 684v6.27A75.67 75.67 0 0 1 125 726.36zM854.1 835.72l-0.85-0.48 0.76 0.76h15.55a57 57 0 0 1 45.82-23c1 0 2.09 0 3.13 0.09v-13.17c-1 0-2.08-0.08-3.13-0.08a70.54 70.54 0 0 0-61.28 35.88z" fill="#1296db" p-id="4055"></path><path d="M876 836h20.41a38.94 38.94 0 0 1 19-4.93c1.05 0 2.09 0.06 3.13 0.14V818c-1-0.06-2.08-0.1-3.13-0.1A51.94 51.94 0 0 0 876 836zM830.58 778.53a39 39 0 0 1 31 15.34 94.41 94.41 0 0 1 11.24-6.81 52 52 0 0 0-76.52-8.75l9.29 9.29a38.9 38.9 0 0 1 24.99-9.07z" fill="#1296db" p-id="4056"></path><path d="M830.58 796.64a21 21 0 0 1 17.24 9.06 94.17 94.17 0 0 1 9.76-8.85 34 34 0 0 0-48.42-5.7l9.35 9.35a20.88 20.88 0 0 1 12.07-3.86zM792.76 774.76a57.06 57.06 0 0 1 84.65 10.1 93.64 93.64 0 0 1 12.67-4.6A70.16 70.16 0 0 0 778.94 770H788zM144.89 765.42a52 52 0 0 0-43 22.71 94.38 94.38 0 0 1 11 7 39 39 0 0 1 61.73-2.83l9.27-9.27a51.9 51.9 0 0 0-39-17.61z" fill="#1296db" p-id="4057"></path><path d="M144.89 747.3A70.52 70.52 0 0 0 84.94 781a93.77 93.77 0 0 1 12.44 4.89 57.07 57.07 0 0 1 90.1-6.32l9.27-9.27a70.4 70.4 0 0 0-51.86-23zM259.91 768.9a75.17 75.17 0 0 1 121.89 10 92.57 92.57 0 0 1 13.94-2 88.35 88.35 0 0 0-150.93-9.9H258zM840.76 822.75l9.55 9.55a75.54 75.54 0 0 1 65.06-37.47c1 0 2.09 0 3.13 0.07v-13.12q-1.56-0.06-3.13-0.06a88.86 88.86 0 0 0-74.61 41.03zM144.89 801.64a16 16 0 0 0-14.66 9.61l-0.71-0.31a92.9 92.9 0 0 1 8.41 12.06H144l14.19-14.19a16 16 0 0 0-13.3-7.17z" fill="#1296db" p-id="4058"></path><path d="M144.89 783.53a34 34 0 0 0-28 14.74 94.11 94.11 0 0 1 9.67 9.23 20.95 20.95 0 0 1 35.26-2.28l9.33-9.33a34 34 0 0 0-26.26-12.36zM109.39 823a70.66 70.66 0 0 0-36.31-21.36v13.54A56.73 56.73 0 0 1 89.63 823z" fill="#1296db" p-id="4059"></path><path d="M115.95 823h16.13a89.07 89.07 0 0 0-59-39.84v13.37A75.67 75.67 0 0 1 115.95 823zM80 779.54A75.15 75.15 0 0 1 200.55 767h16.78a88.3 88.3 0 0 0-144.25-0.89v12q3.48 0.58 6.92 1.43zM433.46 741.6a94.36 94.36 0 0 1 11.17-6.84 52 52 0 0 0-85.38-0.51 94.4 94.4 0 0 1 11.27 6.75 39 39 0 0 1 62.94 0.63zM572.12 799.84A70.49 70.49 0 0 0 514.48 830h17a57 57 0 0 1 81.31 0h17a70.49 70.49 0 0 0-57.67-30.16zM401.76 794.84A75.52 75.52 0 0 1 465.41 830h12.4c0.86-0.09 1.72-0.19 2.59-0.25a88.4 88.4 0 0 0-157.25 0c1.09 0.08 2.18 0.18 3.26 0.3h11.71a75.52 75.52 0 0 1 63.64-35.21zM686.3 829.7l16.91-16.91a70.72 70.72 0 0 0-16.91 16.91zM665 829.85l1.28 0.14h13.76a75.77 75.77 0 0 1 35.59-29.68l18-18A89 89 0 0 0 665 829.85z" fill="#1296db" p-id="4060"></path><path d="M401.76 799.84A70.49 70.49 0 0 0 344.13 830h17a57 57 0 0 1 81.34 0h17a70.49 70.49 0 0 0-57.71-30.16zM572.12 794.84A75.52 75.52 0 0 1 635.77 830h11c1.3-0.14 2.6-0.26 3.91-0.34a88.39 88.39 0 0 0-157.19 0c1.31 0.08 2.61 0.2 3.91 0.34h11a75.52 75.52 0 0 1 63.72-35.16z" fill="#1296db" p-id="4061"></path><path d="M368.51 830H435a51.91 51.91 0 0 0-66.5 0zM538.85 830h66.54a52 52 0 0 0-66.54 0zM289.72 691.83a94.2 94.2 0 0 1 9.7 9 21 21 0 0 1 35-1 94.23 94.23 0 0 1 9.76-8.82 34 34 0 0 0-54.43 0.83zM231.06 671h2.19a93.26 93.26 0 0 1 13.23-20l-0.77 0.34a16 16 0 0 0-29.31 0l-0.74-0.32a93.28 93.28 0 0 1 13.22 20c0.73-0.02 1.45-0.02 2.18-0.02zM144.89 654.69a57 57 0 0 1 47.17 24.92 93.74 93.74 0 0 1 12.55-4.75 70.2 70.2 0 0 0-119.23-0.31A93.62 93.62 0 0 1 98 679.16a57 57 0 0 1 46.89-24.47z" fill="#1296db" p-id="4062"></path><path d="M348.16 688a94.37 94.37 0 0 1 11.27-6.79 52.06 52.06 0 0 0-84.81 0.64 94.37 94.37 0 0 1 11.12 6.92 39 39 0 0 1 62.42-0.78zM401.76 671h1.84a93.27 93.27 0 0 1 13-19.78l-0.21 0.09a16 16 0 0 0-28.88-0.89A93.31 93.31 0 0 1 401.23 671z" fill="#1296db" p-id="4063"></path><path d="M317.25 654.69A57 57 0 0 1 364 679a93.58 93.58 0 0 1 12.7-4.58 70.2 70.2 0 0 0-119.18 0.4 93.64 93.64 0 0 1 12.55 4.75 57 57 0 0 1 47.18-24.88zM487.6 724.19h0.21a93.25 93.25 0 0 1 13.45-20.56 16 16 0 0 0-27.86 0.93 93.24 93.24 0 0 1 12.67 19.65zM487.6 654.69A57 57 0 0 1 534.37 679a93.58 93.58 0 0 1 12.7-4.58 70.2 70.2 0 0 0-119.13 0.31 93.69 93.69 0 0 1 12.58 4.71 57 57 0 0 1 47.08-24.75zM176.38 688.78a94.38 94.38 0 0 1 11.12-6.92 52.05 52.05 0 0 0-84.9-0.5 94.43 94.43 0 0 1 11.24 6.81 39 39 0 0 1 62.54 0.61zM144.89 695.92a16 16 0 0 0-13.8 8 93.25 93.25 0 0 1 13.25 20.32h2.41a93.23 93.23 0 0 1 12.46-19.41 16 16 0 0 0-14.32-8.91zM231.06 694.11A70.53 70.53 0 0 0 171 728a93.63 93.63 0 0 1 12.57 4.69 57.09 57.09 0 0 1 95 0 93.67 93.67 0 0 1 12.56-4.69 70.53 70.53 0 0 0-60.07-33.89zM317.25 695.92a16 16 0 0 0-14.32 8.91 93.24 93.24 0 0 1 12.45 19.39h2.08a93.26 93.26 0 0 1 13.45-20.56 16 16 0 0 0-13.66-7.74z" fill="#1296db" p-id="4064"></path><path d="M231.06 676a88.88 88.88 0 0 0-78.88 48.49 92.56 92.56 0 0 1 13.82 2.15 75.21 75.21 0 0 1 130.18 0 92.54 92.54 0 0 1 13.79-2.16A88.87 88.87 0 0 0 231.06 676zM401.76 689.11a75.54 75.54 0 0 1 65.05 37.46 92.62 92.62 0 0 1 13.82-2.11 88.41 88.41 0 0 0-157.7-0.08 92.48 92.48 0 0 1 13.94 1.92 75.53 75.53 0 0 1 64.89-37.19zM518.52 688a94.44 94.44 0 0 1 11.27-6.79 52.06 52.06 0 0 0-84.72 0.51 94.33 94.33 0 0 1 11.15 6.89 39 39 0 0 1 62.3-0.61zM162.71 700.84a94.18 94.18 0 0 1 9.7-9 34 34 0 0 0-54.55-0.65 94.19 94.19 0 0 1 9.75 8.86 20.95 20.95 0 0 1 35.1 0.81z" fill="#1296db" p-id="4065"></path><path d="M231.06 712.22a52 52 0 0 0-43 22.66 94.41 94.41 0 0 1 11.15 6.87 39 39 0 0 1 63.62 0 94.41 94.41 0 0 1 11.17-6.86 52 52 0 0 0-42.94-22.67z" fill="#1296db" p-id="4066"></path><path d="M231.06 730.34a34 34 0 0 0-27.81 14.43 94.16 94.16 0 0 1 9.76 9 20.95 20.95 0 0 1 36.12 0 94.22 94.22 0 0 1 9.76-9 34 34 0 0 0-27.83-14.43zM572.12 671h1.84a93.26 93.26 0 0 1 13-19.79l-0.21 0.09a16 16 0 0 0-28.88-0.89A93.29 93.29 0 0 1 571.59 671zM469.92 700.62a20.95 20.95 0 0 1 34.82-0.81 94.22 94.22 0 0 1 9.76-8.81 34 34 0 0 0-54.29 0.64 94.19 94.19 0 0 1 9.71 8.98zM658 654.69a57 57 0 0 1 47 24.78 93.61 93.61 0 0 1 12.59-4.7 70.2 70.2 0 0 0-119.32 0 93.75 93.75 0 0 1 12.58 4.71A57 57 0 0 1 658 654.69z" fill="#1296db" p-id="4067"></path><path d="M675.62 700.59a94.13 94.13 0 0 1 9.72-9 34 34 0 0 0-54.78 0 94.13 94.13 0 0 1 9.72 9 21 21 0 0 1 35.34 0z" fill="#1296db" p-id="4068"></path><path d="M700.48 681.72a52 52 0 0 0-85.05 0 94.4 94.4 0 0 1 11.15 6.89 39 39 0 0 1 62.76 0 94.35 94.35 0 0 1 11.14-6.89zM830.58 677.8a34 34 0 0 0-27.77 14.36 94.14 94.14 0 0 1 9.69 9.12 20.94 20.94 0 0 1 35.33-1.28 94.17 94.17 0 0 1 9.76-8.85 34 34 0 0 0-27.01-13.35zM317.25 783.53a34 34 0 0 0-27.53 14 94.2 94.2 0 0 1 9.7 9 21 21 0 0 1 35-1 94.23 94.23 0 0 1 9.76-8.82 34 34 0 0 0-26.93-13.18z" fill="#1296db" p-id="4069"></path><path d="M830.58 672.8a39 39 0 0 1 31 15.34 94.41 94.41 0 0 1 11.24-6.81 52.05 52.05 0 0 0-85.05 0.79 94.43 94.43 0 0 1 11.08 7 39 39 0 0 1 31.73-16.32zM743.75 671c0.95 0 1.89 0 2.83 0.05a93.26 93.26 0 0 1 13-19.8l-0.21 0.09a16 16 0 0 0-29.31 0l-1.72-0.76A93.28 93.28 0 0 1 742 671h1.75zM643.77 704.56a93.23 93.23 0 0 1 12.67 19.65h2.99a93.23 93.23 0 0 1 12.7-19.69 16 16 0 0 0-28.37 0zM615 734.76a52 52 0 0 0-85.38-0.51 94.4 94.4 0 0 1 11.25 6.75 39 39 0 0 1 62.94 0.63 94.36 94.36 0 0 1 11.19-6.87z" fill="#1296db" p-id="4070"></path><path d="M572.12 730.34a34 34 0 0 0-27.22 13.6 94.21 94.21 0 0 1 9.83 8.8 20.94 20.94 0 0 1 35.32 0.81 94.22 94.22 0 0 1 9.77-9 34 34 0 0 0-27.7-14.21zM493.29 724.38a92.47 92.47 0 0 1 13.94 1.92 75.21 75.21 0 0 1 129.94 0.27 92.61 92.61 0 0 1 13.83-2.12 88.41 88.41 0 0 0-157.7-0.08z" fill="#1296db" p-id="4071"></path><path d="M632.14 727.87a70.22 70.22 0 0 0-119.84-0.31 93.63 93.63 0 0 1 12.7 4.52 57.09 57.09 0 0 1 94.55 0.45 93.65 93.65 0 0 1 12.59-4.66z" fill="#1296db" p-id="4072"></path><path d="M952.1 707a82.17 82.17 0 0 0-34.92-67.24 82.54 82.54 0 0 0-76.08-50.93H699l-65.4-93.34a118.18 118.18 0 0 0-96.4-50h-22.43a46.47 46.47 0 0 0-78.39 0h-92c-42.77 0-92 1.9-135.63 24.6-45.75 23.82-79.09 67.35-101.91 133a24.15 24.15 0 0 1-3.72 6C60.35 637.76 34.88 686.48 34.88 740v35.12a46.64 46.64 0 0 0 25 85.92h75.58a92.32 92.32 0 0 0 177.72 0H670a92.32 92.32 0 0 0 177.72 0h70.78a46.65 46.65 0 0 0 33.6-78.85zM344.42 495.47h192.79a69 69 0 0 1 55.5 28.76L638 588.82H476.33V541a25 25 0 0 0-25-25 25 25 0 0 0-25 25v47.82H349V541a25 25 0 0 0-50 0v47.82H166.48c40.32-86.06 100.15-93.35 177.94-93.35zM224.33 878.29A42.25 42.25 0 0 1 190.25 861h68.16a42.25 42.25 0 0 1-34.08 17.29zM190.25 811a42.24 42.24 0 0 1 68.16 0z m568.66 67.29A42.25 42.25 0 0 1 724.82 861H793a42.25 42.25 0 0 1-34.09 17.29zM724.82 811a42.24 42.24 0 0 1 68.18 0z m177.28 0h-54.33A92.32 92.32 0 0 0 670 811H313.19a92.32 92.32 0 0 0-177.72 0H84.88v-71c0-37.24 17.7-70.92 47.35-90.1l1.41-0.91 1.27-1.09a60.13 60.13 0 0 0 8.54-9H841.1a32.44 32.44 0 0 1 31.23 24l2.83 10.48 9.59 5.09A32.38 32.38 0 0 1 902.1 707zM811 412a91 91 0 1 0-91-91 91.1 91.1 0 0 0 91 91z m0-132a41 41 0 1 1-41 41 41 41 0 0 1 41-41z" fill="#1296db" p-id="4073"></path><path d="M953 522.17v-9.59a73.17 73.17 0 0 0-73.08-73.08H735.64A50.91 50.91 0 0 0 686 478.67L671.74 536l48.53 12 14.25-57.41 0.06-0.26a1.09 1.09 0 0 1 1.07-0.85h144.27a23.11 23.11 0 0 1 23.08 23.1v44.24l80.22 30.08 17.56-46.82z" fill="#1296db" p-id="4074"></path><path d="M224.33 878.33A42.33 42.33 0 1 1 266.66 836a42.38 42.38 0 0 1-42.33 42.33zM758.85 878.33A42.33 42.33 0 1 1 801.18 836a42.38 42.38 0 0 1-42.33 42.33z" fill="#1296db" p-id="4075"></path></svg>