<?xml version="1.0" standalone="no"?><!DOCTYPE svg PUBLIC "-//W3C//DTD SVG 1.1//EN" "http://www.w3.org/Graphics/SVG/1.1/DTD/svg11.dtd"><svg t="1602666650676" class="icon" viewBox="0 0 1024 1024" version="1.1" xmlns="http://www.w3.org/2000/svg" p-id="3585" xmlns:xlink="http://www.w3.org/1999/xlink" width="200" height="200"><defs><style type="text/css"></style></defs><path d="M510.688203 441.220007H571.487134v38.44135h-60.798931zM464.262003 510.345995c-5.475326-3.422079-8.098919-8.327058-8.09892-14.829007 0-7.642642 2.851732-12.433552 8.555197-14.37273 1.711039-0.684416 5.019049-1.026624 9.809959-1.254763v-38.669488h-8.669266c-19.505848 0-33.194163 3.19394-41.064944 9.58182-13.117968 10.608444-19.619918 24.867105-19.619917 42.890052 0 9.353682 1.939178 18.137017 5.703464 26.464075 3.764287 8.212989 9.011474 14.714938 15.741562 19.391779 5.475326 3.992425 11.29286 6.616019 17.56667 8.09892 6.273811 1.482901 15.399354 2.167316 27.148491 2.167316h3.19394v-37.186588c-5.133118-0.342208-8.555197-1.140693-10.266236-2.281386zM561.905314 525.175003c-10.836582-7.870781-25.66559-11.863206-44.372954-11.863206h-6.844157v36.84438c5.931603 0.342208 10.038097 1.026624 11.977275 2.053247 5.931603 2.737663 8.897404 7.756712 8.897405 15.171215 0 9.125543-4.448702 14.144592-13.346107 15.171216-1.825109 0.114069-4.334633 0.228139-7.528573 0.228138v38.55542c17.908878 0 30.798708-1.368831 38.44135-4.106495 7.756712-2.737663 14.37273-8.327058 19.733987-16.996324 7.414504-10.836582 11.064721-22.813858 11.064721-35.817756 0.114069-17.338532-5.931603-30.4565-18.022947-39.239835zM407.683636 582.779993h66.730534v38.44135h-66.730534zM492.551186 621.221343V691.259886v-70.038543h-18.137016V691.259886h36.274033v-70.038543h-18.137017zM492.551186 371.181464v70.038543h18.137017v-70.038543h-36.274033v70.038543h18.137016zM492.551186 549.928038h8.669266c3.536148 0 6.730088 0.114069 9.467751 0.228139V513.311797h-18.137017v36.616241zM474.41417 582.779993h18.137016v38.44135h-18.137016z" p-id="3586" fill="#1296db"></path><path d="M492.551186 513.311797h-4.220563c-5.589395 0-10.152167-0.228139-13.916453-0.570347v37.186588h18.137016V513.311797zM496.087334 582.779993h-3.536148v38.44135h18.137017v-38.555419c-3.878356 0.114069-8.783335 0.114069-14.600869 0.114069zM483.88192 479.661357h8.669266v-38.44135h-18.137016v38.669488c2.623594-0.228139 5.817534-0.228139 9.46775-0.228138zM492.551186 441.220007h18.137017v38.44135h-18.137017z" p-id="3587" fill="#1296db"></path><path d="M492.323048 895.443912c-110.989417 0-212.282945-172.358694-309.35591-526.657903-2.053247-7.300434 1.026624-15.171215 7.528573-19.049571l293.158071-180.229476c5.475326-3.422079 12.433552-3.422079 17.908878 0l293.158071 180.229476c6.273811 3.878356 9.353682 11.29286 7.756711 18.479224-0.342208 1.254762-30.570569 130.381196-81.787679 258.252869-71.065167 176.921466-147.149382 267.492481-226.313468 268.975381h-2.053247zM219.241172 372.208087c48.479447 174.526011 98.669934 304.45093 149.202629 386.352679 42.091567 68.213434 83.726858 102.776429 123.879247 102.776429h1.368831c33.764509-0.684416 69.011919-25.779659 104.943745-74.601314 30.4565-41.521221 60.798931-99.582489 90.000669-172.586833 41.293082-103.118637 68.783781-207.149827 77.453046-241.712822L492.551186 204.184026 219.241172 372.208087z" p-id="3588" fill="#1296db"></path></svg>