<?xml version="1.0" standalone="no"?><!DOCTYPE svg PUBLIC "-//W3C//DTD SVG 1.1//EN" "http://www.w3.org/Graphics/SVG/1.1/DTD/svg11.dtd"><svg t="1602663653095" class="icon" viewBox="0 0 1024 1024" version="1.1" xmlns="http://www.w3.org/2000/svg" p-id="1822" xmlns:xlink="http://www.w3.org/1999/xlink" width="200" height="200"><defs><style type="text/css"></style></defs><path d="M523.73504 319.29344h-204.8c-16.896 0-30.72-13.824-30.72-30.72s13.824-30.72 30.72-30.72h204.8c16.896 0 30.72 13.824 30.72 30.72s-13.824 30.72-30.72 30.72zM605.65504 452.41344h-286.72c-16.896 0-30.72-13.824-30.72-30.72s13.824-30.72 30.72-30.72h286.72c16.896 0 30.72 13.824 30.72 30.72s-13.824 30.72-30.72 30.72z" fill="#FFFFFF" p-id="1823"></path><path d="M512 901.12c-214.016 0-389.12-175.104-389.12-389.12s175.104-389.12 389.12-389.12 389.12 175.104 389.12 389.12-175.104 389.12-389.12 389.12z" fill="#3889FF" p-id="1824"></path><path d="M644.67968 528.98816l23.1424 161.73056c-0.4608 28.0064-23.56224 50.688-51.75296 50.688-28.23168 0-51.2-22.64064-51.75296-50.688l23.6544-161.32096 56.70912-0.4096z m-226.59072 212.3776c28.0064 0 51.00544-21.80096 51.47648-48.78336l-23.00928-204.41088 17.03936-7.08608c29.99296-12.544 52.54144-36.05504 63.36512-64.29696 3.3792-8.88832 4.99712-18.3808 4.99712-27.86304v-71.33184a35.05152 35.05152 0 0 0-35.04128-35.04128 20.1728 20.1728 0 0 0-20.18304 20.18304v86.79424c0 8.192-5.87776 15.64672-14.0288 16.47616A15.6672 15.6672 0 0 1 445.44 390.4512v-80.5376a27.38176 27.38176 0 0 0-27.36128-27.36128 27.37152 27.37152 0 0 0-27.35104 27.36128v79.5648c0 8.192-5.87776 15.64672-14.0288 16.47616a15.6672 15.6672 0 0 1-17.26464-15.55456v-87.67488a20.1728 20.1728 0 0 0-20.18304-20.18304 35.05152 35.05152 0 0 0-35.04128 35.04128v71.33184c0 9.49248 1.57696 18.97472 4.99712 27.86304 10.83392 28.28288 33.3312 51.79392 63.36512 64.29696l17.03936 7.08608-23.00928 204.41088c0.48128 26.99264 23.48032 48.7936 51.48672 48.7936z m0 0" fill="#FFFFFF" p-id="1825"></path><path d="M587.97056 529.408V282.54208s131.40992 100.4032 131.40992 246.43584c-44.75904 0.01024-131.40992 0.43008-131.40992 0.43008z m0 0" fill="#FFFFFF" p-id="1826"></path></svg>